PathFileType	4	(X/Y/Z)	C:/Users/beibeiliu/ov580/test_trc/User2\sequence.31_training_dense_left.trc
DataRate	CameraRate	NumFrames	NumMarkers	Units	OrigDataRate	OrigDataStartFrame	OrigNumFrames
120	120	23	19	mm	120	175	349
Frame#	Time	ThumbCMC			ThumbMCP			ThumbIP			ThumbTip			IndexMCP			IndexPIP			IndexTip			MiddleMCP			MiddlePIP			MiddleTip			RingMCP			RingPIP			RingTip			PinkyMCP			PinkyPIP			PinkyTip			BackHand1			BackHand2			BackHand3	
		X0	Y0	Z0	X1	Y1	Z1	X2	Y2	Z2	X3	Y3	Z3	X4	Y4	Z4	X5	Y5	Z5	X6	Y6	Z6	X7	Y7	Z7	X8	Y8	Z8	X9	Y9	Z9	X10	Y10	Z10	X11	Y11	Z11	X12	Y12	Z12	X13	Y13	Z13	X14	Y14	Z14	X15	Y15	Z15	X16	Y16	Z16	X17	Y17	Z17	X18	Y18	Z18	
174	1.45	-178.84	-11.3018	41.2428	-143.319	-10.8326	33.1969	-108.019	-13.758	20.3622	-94.7391	-35.3831	12.3205	-161.291	-33.8954	-31.9282	-127.471	-42.2417	-41.9379	-97.1542	-43.9014	-27.8643	-156.504	-65.9084	-31.3248	-117.288	-68.157	-34.4451	-91.4596	-64.0749	-12.6103	-146.981	-87.0643	-15.2739	-117.428	-76.9096	-6.6574	-118.041	-60.0194	24.1486	-146.808	-100.152	7.04714	-120.974	-82.5668	17.3329	-132.628	-61.3748	39.8564	-202.984	-78.1861	17.6005	-220.765	-70.2214	46.6427	-212.206	-36.5687	24.6126	
175	1.45833	-183.96	-11.1123	43.2546	-144.664	-6.24016	32.8362	-113.394	-13.2839	20.9378	-90.8915	-28.2651	11.497	-160.338	-39.7018	-31.5314	-131.068	-37.4155	-42.9329	-98.7267	-38.2043	-29.184	-155.068	-67.7675	-31.1223	-120.075	-68.8326	-35.1235	-89.1524	-58.3112	-9.35385	-145.411	-84.8421	-13.5143	-116.039	-73.8949	-4.83208	-116.472	-56.6164	23.0188	-142.911	-100.011	9.17733	-119.188	-81.0867	20.4758	-130.671	-57.1726	40.5077	-202.441	-77.1941	23.3165	-219.4	-70.3501	47.3885	-213.751	-39.5253	25.84	
176	1.46667	-184.794	-11.5514	39.3559	-148.572	-4.488	32.6914	-116.753	-8.43715	21.5077	-94.6642	-23.4496	12.2752	-161.368	-40.7734	-30.7721	-127.569	-41.323	-39.6754	-100.865	-37.3086	-28.1644	-153.87	-67.7396	-29.6032	-119.719	-64.1298	-34.0114	-88.3877	-51.5353	-9.26105	-143.299	-84.5516	-10.6636	-113.769	-75.5553	-2.06295	-117.946	-50.4408	27.6191	-142.19	-94.7688	9.19312	-116.171	-76.7599	24.7902	-129.443	-54.7956	42.4927	-200.56	-81.4338	23.5428	-219.095	-74.8939	48.5991	-214.392	-42.4065	22.3373	
177	1.475	-190.458	-7.91606	39.6044	-152.787	-1.23335	32.3613	-122.595	-3.40771	21.9252	-98.7861	-21.3454	11.4368	-160.654	-38.3371	-33.4613	-130.245	-38.5455	-40.2656	-99.592	-30.2449	-26	-154.971	-65.7734	-26.3138	-114.874	-60.7924	-31.2256	-90.1315	-48.2467	-8.73239	-141.171	-79.3039	-11.493	-112.897	-70.9503	-2.00674	-116.152	-45.4071	28.1814	-141.754	-96.0458	15.221	-113.918	-75.61	23.7465	-127.148	-50.429	43.3995	-196.989	-83.2922	21.9433	-218.135	-78.2118	53.2875	-216.979	-46.9554	25.2506	
178	1.48333	-194.968	-8.15353	38.2893	-159.951	-3.03261	30.4548	-124.703	2.54691	17.9371	-101.289	-11.7419	12.1947	-164.004	-38.0692	-30.2165	-131.574	-37.5094	-40.1176	-100.444	-23.1022	-26.9557	-150.387	-61.9863	-29.1181	-113.855	-53.6839	-30.3252	-90.2156	-37.4209	-8.29047	-140.078	-77.0978	-9.13442	-108.739	-65.3924	0.878357	-113.277	-38.4435	24.762	-134.113	-91.4929	16.1261	-112.446	-69.8621	21.2342	-123.986	-43.7847	39.177	-192.84	-84.7825	26.1756	-216.393	-77.5587	49.4001	-217.934	-48.0263	24.0474	
179	1.49167	-201.697	-9.21209	38.3932	-169.047	4.5349	30.5344	-132.979	5.16723	17.4165	-110.175	-5.18625	13.8073	-160.53	-39.2144	-32.3258	-135.583	-30.6195	-42.1355	-105.858	-21.0063	-27.614	-150.113	-60.6953	-25.024	-115.41	-50.597	-29.785	-91.7718	-29.6271	-6.97927	-135.239	-76.6076	-3.57138	-108.718	-58.5136	-2.5744	-111.492	-30.7451	23.7998	-128.59	-84.9346	18.8247	-108.477	-58.6225	22.8272	-121.152	-36.4761	40.5587	-189.87	-83.8278	30.3467	-213.225	-77.6561	54.0662	-217.096	-52.7678	26.5361	
180	1.5	-205.652	-11.2802	34.9851	-176.391	8.50871	27.1553	-137.903	13.7138	12.0265	-113.532	-1.21901	10.5929	-162.77	-40.2815	-28.3157	-131.776	-27.7803	-39.4951	-108.753	-7.44358	-28.7816	-144.19	-56.6218	-25.6104	-110.69	-40.5882	-27.9624	-94.1333	-15.5869	-5.34374	-128.25	-69.996	-5.1341	-107.513	-49.8437	-4.80945	-111.121	-21.5588	22.0591	-126.36	-74.315	18.0727	-106.586	-49.8239	22.7632	-120.726	-27.0927	40.1081	-186.308	-79.7779	27.117	-207.397	-82.8787	51.0008	-212.779	-56.0507	27.0307	
181	1.50833	-208.575	-13.7523	33.1443	-181.031	12.4754	20.9302	-150.192	22.3131	10.7525	-120.987	10.2238	7.79865	-160.874	-35.3604	-33.1578	-136.321	-22.9591	-40.751	-113.373	4.43396	-28.2668	-142.218	-53.6982	-22.4267	-113.762	-33.2977	-28.3988	-98.5844	-3.16121	-1.8062	-128.38	-63.6996	-0.504236	-104.83	-36.4806	-0.56835	-113.563	-12.6792	20.2452	-122.798	-69.1946	24.611	-108.118	-36.7829	23.0829	-126.206	-17.957	42.1548	-181.277	-78.3756	29.1757	-203.465	-81.2519	56.4443	-208.552	-59.0655	23.2209	
182	1.51667	-214.519	-15.8607	34.7759	-189.935	12.9786	19.5235	-157.659	26.7601	7.13038	-130.697	20.4188	6.14583	-163.971	-33.7881	-31.1794	-139.125	-17.0692	-42.6055	-118.384	10.9049	-28.6019	-141.168	-47.9912	-22.9503	-110.576	-22.0695	-24.95	-104.941	3.94018	-3.01613	-125.507	-51.4025	-4.56586	-106.361	-26.6738	0.261524	-120.824	-2.70276	25.8183	-118.684	-58.526	22.5769	-104.717	-29.6587	27.9542	-131.66	-13.4829	43.8265	-174.798	-76.6682	32.8984	-200.175	-80.8724	56.7936	-208.69	-59.3951	25.5926	
183	1.525	-216.222	-18.7347	32.7127	-197.483	13.5733	17.91	-167.591	29.1182	5.31245	-138.492	20.1063	6.84404	-162.019	-32.3691	-31.5123	-139.995	-7.38746	-44.2215	-126.375	16.9408	-30.8745	-140.486	-45.7568	-19.4846	-112.749	-14.6924	-24.7335	-113	14.6689	-0.232215	-124.746	-47.3051	-1.47171	-106.412	-19.0159	2.56819	-125.316	2.25265	22.73	-118.291	-53.1415	24.6344	-110.172	-19.9693	24.6003	-132.835	-5.3925	39.8327	-175.347	-73.1482	33.5069	-193.977	-82.5457	58.3407	-207.772	-61.2441	27.7349	
184	1.53333	-217.659	-18.697	29.1098	-202.462	12.924	16.7731	-172.595	28.3081	5.56233	-146.313	27.4461	5.0422	-163.432	-30.6129	-30.2403	-143.924	-8.70514	-42.6918	-127.961	17.916	-28.7394	-135.913	-40.0122	-21.0696	-117.159	-12.0974	-27.6666	-117.091	19.5297	-3.53823	-120.525	-42.3575	-1.70333	-109.543	-13.888	0.126705	-130.142	6.81868	25.0272	-116.021	-46.6118	23.0898	-110.423	-13.8444	23.1712	-133.477	-2.9113	41.9926	-169.963	-72.8536	33.4646	-192.075	-78.407	58.9639	-204.55	-61.4206	25.1931	
185	1.54167	-218.886	-18.6851	30.9417	-203.713	12.0211	15.9409	-174.727	30.2955	2.48895	-147.066	26.0864	4.94024	-162.447	-27.3414	-32.2993	-143.634	-6.25332	-41.9954	-130.648	21.2098	-27.4648	-139.881	-37.3812	-23.4041	-116.828	-9.47734	-24.9354	-119.083	21.4319	-1.95405	-124.691	-40.4685	-0.0987841	-110.719	-11.5887	-2.64002	-132.239	7.97499	22.2625	-120.109	-44.245	23.7252	-110.36	-9.29286	26.2271	-135.543	-0.90597	39.2759	-168.931	-70.9947	33.2206	-189.643	-76.6698	55.6326	-204.038	-60.2601	24.8235	
186	1.55	-221.482	-17.9055	29.7443	-204.898	13.3379	15.7982	-178.352	34.7914	3.12287	-149.444	31.679	4.39092	-164.476	-27.1954	-29.0157	-141.85	-0.623595	-41.9326	-132.347	23.4104	-28.0053	-139.045	-38.1144	-18.2649	-117.057	-4.82008	-25.4897	-119.372	24.4174	-1.84694	-122.493	-35.5321	-3.39898	-109.675	-7.15074	1.54643	-133.545	9.03386	26.7159	-113.472	-40.5788	25.1984	-110.757	-8.84863	23.8274	-140.602	0.196586	38.0873	-164.98	-71.0079	37.7314	-187.891	-78.6894	56.5558	-205.841	-59.9022	27.1745	
187	1.55833	-217.926	-20.2076	32.487	-206.147	11.0284	17.8183	-179.18	34.4454	3.42152	-149.493	32.6886	2.14804	-161.956	-25.4891	-31.4161	-145.783	-3.29856	-43.868	-133.151	28.2757	-25.6023	-138.932	-33.8523	-23.0868	-115.655	-5.187	-24.5477	-119.952	24.5135	-2.16024	-122.818	-34.0187	-4.12812	-112.392	-5.1748	-0.604284	-132.231	10.6171	23.1808	-113.009	-38.4724	25.1844	-110.363	-5.05185	27.4084	-140.001	0.15287	41.4249	-165.58	-66.3305	31.8582	-184.349	-76.721	58.8044	-199.421	-61.3942	26.5916	
188	1.56667	-219.187	-19.4401	31.0974	-206.945	13.4768	15.1029	-180.047	34.5619	1.52319	-149.75	31.7066	2.94893	-163.538	-25.4873	-31.4052	-146.332	-1.81117	-44.0323	-133.377	27.6906	-25.6585	-137.928	-36.2256	-17.8489	-117.778	-3.80327	-25.5956	-124.722	29.7763	-0.104486	-120.244	-34.0464	-0.707372	-110.394	-3.0194	2.80716	-136.713	10.9258	25.1085	-113.279	-34.5566	23.0139	-110.141	-4.17452	28.3441	-138.303	0.952093	43.7465	-160.577	-69.5402	33.807	-186.615	-77.104	61.0112	-198.668	-61.2117	25.3326	
189	1.575	-218.591	-18.4645	30.9754	-204.964	10.6537	16.9386	-182.25	36.0285	3.05029	-149.351	35.1401	1.18205	-167.036	-24.8707	-30.5834	-146.451	0.806009	-43.9058	-136.797	29.3218	-28.3743	-138.98	-33.9551	-19.8775	-116.417	-3.35853	-24.4654	-122.993	28.6702	1.49893	-122.281	-30.8887	-3.59937	-110.901	0.596345	4.54797	-138.615	13.0863	26.2637	-112.251	-33.6805	24.1564	-113.211	-2.91681	26.1322	-142.849	1.29061	41.6811	-166.445	-67.9644	35.4897	-186.316	-77.2605	61.2044	-201.48	-57.8149	27.2308	
190	1.58333	-220.587	-15.9542	30.235	-205.589	15.3008	14.7595	-180.437	37.0236	1.34453	-151.063	36.3214	0.506535	-165.702	-23.1473	-28.8274	-144.735	-0.315373	-40.5574	-136.323	32.3447	-25.2027	-137.756	-31.7591	-20.3027	-118.044	2.06322	-25.643	-122.5	29.5537	0.929158	-120.559	-32.2615	2.21513	-112.383	-0.222916	0.923948	-135.542	13.7412	27.5047	-116.717	-34.2065	26.2548	-113.982	-0.0624717	26.4971	-145.047	3.39567	41.9329	-159.755	-64.4412	34.9629	-181.712	-74.0417	59.2534	-203.664	-57.1809	28.9342	
191	1.59167	-216.871	-15.6805	30.7754	-208.766	15.5455	17.5129	-183.586	36.6747	4.32615	-152.402	35.0949	3.24842	-163.935	-19.4378	-29.6409	-144.618	5.59481	-41.7155	-134.519	32.5188	-23.9581	-137.57	-29.9578	-20.0945	-115.349	-0.365311	-23.9148	-123.839	32.3284	2.09572	-122.337	-27.75	-3.77218	-110.914	1.93225	3.00784	-134.48	14.6478	27.0005	-117.247	-30.3848	23.2777	-111.766	1.2103	26.0625	-143.574	3.1974	40.9307	-160.977	-64.1236	34.7334	-181.902	-72.6375	58.1026	-199.597	-56.4917	31.0376	
192	1.6	-220.094	-10.4986	32.5529	-206.263	20.0945	16.2374	-178.424	37.8914	4.12801	-147.239	39.7617	2.2035	-162.784	-15.7031	-31.5713	-142.989	5.45408	-38.8068	-136.069	38.2775	-22.1693	-138.728	-28.805	-18.6301	-115.032	1.32508	-22.4227	-121.049	32.126	1.84487	-119.914	-27.2813	-0.706937	-109.297	3.4777	2.14115	-136.431	17.5343	24.5388	-113.66	-31.4304	26.1592	-108.086	1.65787	26.9465	-137.653	8.92233	44.1527	-163.548	-61.1939	37.1471	-187.519	-68.9923	60.5186	-201.025	-52.3129	29.7373	
193	1.60833	-219.704	-6.65794	35.0741	-201.307	22.6731	21.7439	-172.141	41.5065	6.3649	-144.896	43.5926	3.05748	-161.998	-11.582	-31.6736	-143.275	11.7053	-38.753	-129.347	37.6594	-18.8479	-136.919	-23.8089	-22.26	-114.662	2.59451	-23.152	-118.983	31.8869	4.61493	-118.759	-27.5353	-1.87265	-108.439	2.21722	0.80692	-127.522	18.0037	24.0235	-118.007	-32.6281	22.9628	-105.779	0.057308	25.6794	-136.277	9.56731	44.4303	-161.789	-59.3069	33.9044	-184.921	-70.6995	59.8762	-202.742	-47.8912	27.7649	
194	1.61667	-212.351	-1.14398	35.2791	-196.279	29.1828	22.8595	-168.825	45.1732	12.4571	-139.445	41.0483	7.21577	-161.809	-8.59887	-29.5545	-139.806	16.573	-37.2959	-128.471	39.0685	-21.4249	-140.278	-22.0427	-22.7161	-114.017	6.6804	-23.3215	-114.852	31.3721	4.48481	-123.632	-30.0429	-2.92593	-105.783	-2.57194	-2.292	-127.052	18.7405	24.3589	-117.095	-34.7255	21.4911	-106.748	-1.13921	22.8569	-131.99	9.88124	40.4169	-166.362	-58.29	34.1918	-188.124	-64.5375	58.9392	-203.884	-44.9051	30.3035	
195	1.625	-211.636	5.70951	40.3124	-191.392	33.2961	28.513	-161.723	50.1848	12.3092	-134.401	47.8783	9.23319	-165.606	-3.71549	-28.9169	-138.146	19.7894	-37.4651	-124.448	41.5229	-18.66	-140.351	-19.3502	-24.3752	-113.491	3.59534	-25.2537	-114.379	34.8412	5.09712	-123.951	-29.8065	-4.09436	-103.934	-3.99511	-4.23613	-118.237	18.5856	21.0487	-117.242	-33.7667	17.1638	-103.64	-5.99103	17.4271	-128.46	9.79824	36.9139	-169.568	-54.9679	30.1718	-189.756	-60.091	53.8155	-203.044	-38.3957	25.6794	
196	1.63333	-207.061	10.6719	41.6089	-187.589	38.8613	32.2425	-158.243	56.586	17.9193	-126.435	48.3312	7.80957	-166.836	3.86201	-29.8438	-141.223	21.233	-37.8745	-120.299	42.9672	-18.2266	-144.303	-15.5548	-23.7897	-112.709	9.80609	-24.4812	-111.908	39.1058	3.43596	-126.306	-26.268	-9.52061	-107.511	1.84487	-8.9659	-117.559	21.7475	18.0273	-120.853	-33.769	13.6132	-102.25	-6.34925	13.9845	-121.114	10.6566	36.0731	-170.84	-51.2515	29.404	-192.185	-58.5599	54.1023	-208.401	-29.6549	28.4601	
